<svg viewBox="0 0 480 220" xmlns="http://www.w3.org/2000/svg">
  <defs>
    <linearGradient id="grad-websma-24" x1="0" y1="0" x2="1" y2="1">
      <stop offset="0%" stop-color="#22e1ff"/>
      <stop offset="100%" stop-color="#3b82f6"/>
    </linearGradient>
    <filter id="glow-websma-24" x="-60%" y="-60%" width="220%" height="220%">
      <feGaussianBlur stdDeviation="4" result="blur"/>
      <feMerge><feMergeNode in="blur"/><feMergeNode in="SourceGraphic"/></feMerge>
    </filter>
    <linearGradient id="red-websma-24" x1="0" y1="0" x2="1" y2="1">
      <stop offset="0%" stop-color="#ff6b6b"/>
      <stop offset="100%" stop-color="#e63950"/>
    </linearGradient>
    <filter id="glow-red-websma-24" x="-60%" y="-60%" width="220%" height="220%">
      <feGaussianBlur stdDeviation="4" result="blur"/>
      <feMerge><feMergeNode in="blur"/><feMergeNode in="SourceGraphic"/></feMerge>
    </filter>
  </defs>
  <rect x="0" y="0" width="480" height="220" rx="14" fill="#0a0e18"/>

  <circle cx="240" cy="110" r="62" fill="none" stroke="#3a4560" stroke-width="1.5" opacity="0.6"/>
  <circle cx="240" cy="110" r="46" fill="none" stroke="#3a4560" stroke-width="1.5" opacity="0.8"/>
  <path d="M 240 62 L 276 76 V 112 C 276 140 260 156 240 166 C 220 156 204 140 204 112 V 76 Z" fill="none" stroke="url(#grad-websma-24)" stroke-width="3.5" stroke-linejoin="round" filter="url(#glow-websma-24)"/>

  <path d="M 227 100 L 214 110 L 227 120" fill="none" stroke="url(#red-websma-24)" stroke-width="3" stroke-linecap="round" stroke-linejoin="round" filter="url(#glow-red-websma-24)"/>
  <path d="M 253 100 L 266 110 L 253 120" fill="none" stroke="url(#red-websma-24)" stroke-width="3" stroke-linecap="round" stroke-linejoin="round" filter="url(#glow-red-websma-24)"/>
  <line x1="237" y1="123" x2="243" y2="97" stroke="url(#red-websma-24)" stroke-width="3" stroke-linecap="round" filter="url(#glow-red-websma-24)"/>

  <circle cx="240" cy="110" r="30" fill="none" stroke="#f6f8fc" stroke-width="1.4" stroke-dasharray="4 4" opacity="0.7"/>
  <line x1="270.0" y1="110.0" x2="276.0" y2="110.0" stroke="#f6f8fc" stroke-width="1.6" stroke-linecap="round" opacity="0.7"/>
  <line x1="240.0" y1="140.0" x2="240.0" y2="146.0" stroke="#f6f8fc" stroke-width="1.6" stroke-linecap="round" opacity="0.7"/>
  <line x1="210.0" y1="110.0" x2="204.0" y2="110.0" stroke="#f6f8fc" stroke-width="1.6" stroke-linecap="round" opacity="0.7"/>
  <line x1="240.0" y1="80.0" x2="240.0" y2="74.0" stroke="#f6f8fc" stroke-width="1.6" stroke-linecap="round" opacity="0.7"/>
</svg>
